<svg xmlns="http://www.w3.org/2000/svg" xmlns:xlink="http://www.w3.org/1999/xlink" viewBox="0 0 1920 720.88"><defs><style>.cls-1{opacity:0.39;}.cls-2{fill:url(#linear-gradient);}.cls-3{fill:#ed4296;}</style><linearGradient id="linear-gradient" y1="360.44" x2="1926.59" y2="360.44" gradientUnits="userSpaceOnUse"><stop offset="0" stop-color="#614a9d" stop-opacity="0"/><stop offset="1" stop-color="#ed4296"/></linearGradient></defs><g id="Layer_2" data-name="Layer 2"><g id="Layer_1-2" data-name="Layer 1"><g class="cls-1"><path class="cls-2" d="M1920,599a314.57,314.57,0,0,1-26.13,21.49q-13.57,10.13-27.89,19.23a525.35,525.35,0,0,1-59.44,32.61,517,517,0,0,1-63.26,24.64,513.54,513.54,0,0,1-66,16.26,520.1,520.1,0,0,1-135.82,5.6,547.92,547.92,0,0,1-67.4-10.33l-8.32-1.89c-2.77-.65-5.56-1.19-8.3-2l-16.5-4.32-16.36-4.85c-1.36-.41-2.73-.8-4.08-1.23l-4-1.35-8.08-2.7a697.29,697.29,0,0,1-123.93-56.44l-7.41-4.2-7.29-4.41-14.56-8.85L1240.86,607l-7.14-4.64-7-4.82-14-9.67c-4.63-3.28-9.17-6.69-13.76-10l-6.86-5c-1.15-.84-2.3-1.67-3.43-2.53l-3.36-2.6-13.45-10.43c-35.73-28-69.42-58.46-101.63-90.33l-12-12-6-6c-2-2-3.91-4.1-5.87-6.15L1023,418.11l-23.23-24.38-2.91-3-3-3-6-5.93L976,369.92,970,364c-2-2-4-4-6-5.88l-12.25-11.55c-8.19-7.67-16.25-15.49-24.72-22.85l-12.56-11.2-6.29-5.6-3.14-2.8-3.21-2.71-25.74-21.69Q824,237,768.05,199.49A1223.69,1223.69,0,0,0,652.4,130.8l-14.95-7.71-3.74-1.93-3.79-1.82-7.58-3.65-15.16-7.29c-2.51-1.25-5.09-2.35-7.64-3.51l-7.68-3.45-15.34-6.9L561,88l-7.76-3.25c-2.6-1.06-5.16-2.2-7.79-3.18l-15.7-6.06C519.33,71.38,508.7,67.8,498.14,64c-5.26-1.94-10.61-3.64-15.94-5.38l-16-5.23c-5.36-1.65-10.75-3.21-16.12-4.83L442,46.16c-1.34-.4-2.68-.82-4-1.19l-4.07-1.1c-10.84-2.89-21.63-6-32.56-8.56-5.46-1.33-10.89-2.73-16.36-4L368.53,27.7c-2.75-.58-5.48-1.24-8.23-1.77L352,24.32c-5.51-1.06-11-2.2-16.54-3.19q-33.17-5.91-66.67-9.84c-22.33-2.52-44.74-4.41-67.2-5.52s-45-1.32-67.46-.88-45,1.76-67.39,4S22,14.22,0,19.16C10.9,16.25,22,14,33.06,12S55.33,8.29,66.53,6.82C88.93,3.94,111.46,2.09,134,1c45.15-2.2,90.46-.68,135.51,3.44,11.25,1.19,22.51,2.31,33.72,3.87,11.24,1.35,22.4,3.2,33.59,4.89,5.59.91,11.15,2,16.73,2.93l8.35,1.48c2.79.49,5.56,1.11,8.33,1.65l16.65,3.38c5.53,1.17,11,2.49,16.56,3.73,11.07,2.41,22,5.33,33,8.14l4.12,1.06c1.36.35,2.72.76,4.08,1.14l8.17,2.33c5.44,1.56,10.9,3.08,16.33,4.68l16.22,5.08c5.4,1.69,10.82,3.34,16.16,5.23,10.7,3.71,21.49,7.2,32.06,11.28l15.92,5.93c2.67,1,5.28,2.08,7.91,3.12l7.88,3.18,15.75,6.37,15.59,6.79,7.78,3.41c2.59,1.14,5.21,2.24,7.76,3.48l15.37,7.25,7.68,3.63,3.85,1.82,3.79,1.92L658,119.9a1235.49,1235.49,0,0,1,117.36,68.55c37.84,25,74.28,52,109.45,80.57l26,21.85,3.25,2.74,3.17,2.82,6.35,5.65,12.7,11.29c8.56,7.42,16.7,15.3,25,23L973.68,348c2.09,1.92,4.08,3.92,6.09,5.92l6,6,12,12,6,6,3,3,2.93,3.07,23.4,24.62,23.19,24.49c1.94,2,3.84,4.09,5.8,6.09l5.93,6,11.83,12c2,2,3.91,4,6,5.95l6,5.84L1104,480.61l3,2.92,3.09,2.85,6.19,5.69,12.39,11.38c4.16,3.76,8.42,7.39,12.63,11.09s8.41,7.41,12.7,11L1167,536.29l6.46,5.38c2.14,1.81,4.38,3.48,6.57,5.23l13.21,10.39,3.3,2.6c1.1.86,2.24,1.68,3.36,2.52l6.74,5c4.51,3.33,9,6.72,13.51,10l13.75,9.64,6.89,4.81,7,4.62,14,9.24,14.28,8.81,7.15,4.41,7.27,4.19c4.85,2.78,9.67,5.62,14.55,8.35l14.79,7.93c4.89,2.71,10,5.1,14.94,7.61s10,5.07,15.09,7.34l15.23,7,15.44,6.53c5.12,2.26,10.39,4.13,15.59,6.17l7.82,3c2.62,1,5.28,1.85,7.91,2.78l7.92,2.75,4,1.38c1.32.44,2.66.84,4,1.26l16,5,16.16,4.44c2.69.78,5.42,1.34,8.13,2l8.16,2a568,568,0,0,0,66.08,11.07,514.37,514.37,0,0,0,133.82-3.26A523.54,523.54,0,0,0,1805,668.77a526.37,526.37,0,0,0,59.91-30.88c9.66-5.78,19.14-11.86,28.36-18.32A333.38,333.38,0,0,0,1920,599Z" transform="translate(0 0)"/></g><circle class="cls-3" cx="1224.25" cy="589.44" r="27.66"/></g></g></svg>