<svg xmlns="http://www.w3.org/2000/svg" xmlns:xlink="http://www.w3.org/1999/xlink" viewBox="0 0 1920 720.85"><defs><style>.cls-1{opacity:0.39;}.cls-2{fill:url(#linear-gradient);}.cls-3{fill:#ed4296;}</style><linearGradient id="linear-gradient" x1="1920" y1="360.43" x2="-6.59" y2="360.43" gradientUnits="userSpaceOnUse"><stop offset="0" stop-color="#614a9d" stop-opacity="0"/><stop offset="1" stop-color="#ed4296"/></linearGradient></defs><g id="Layer_2" data-name="Layer 2"><g id="Layer_1-2" data-name="Layer 1"><g class="cls-1"><path class="cls-2" d="M1920,701.74c-10.89,2.91-22,5.16-33.06,7.17s-22.27,3.74-33.47,5.15c-22.4,2.88-44.93,4.78-67.5,5.83s-45.19,1.19-67.79.64l-17-.58c-5.65-.24-11.29-.63-16.94-.93l-8.47-.5-8.45-.68c-5.64-.47-11.28-.87-16.91-1.41-11.24-1.21-22.51-2.27-33.72-3.87-5.6-.77-11.22-1.44-16.82-2.28l-16.76-2.65c-2.8-.45-5.6-.86-8.38-1.35l-8.35-1.54-16.7-3.08c-5.55-1.11-11.07-2.33-16.62-3.49l-8.3-1.76-4.16-.88-4.12-1a1086.72,1086.72,0,0,1-130.1-39A1136.85,1136.85,0,0,1,1262,601l-3.8-1.9-3.75-2-7.51-4-15-8-14.81-8.35-7.4-4.18-3.7-2.08-3.66-2.17-14.59-8.72-7.3-4.35c-2.44-1.45-4.8-3-7.21-4.51l-14.37-9.07c-2.39-1.52-4.81-3-7.18-4.55l-7.07-4.72a1336.25,1336.25,0,0,1-109.38-80.65c-35.08-28.69-68.74-59.08-101.08-90.8l-23.94-24.1c-7.85-8.16-15.59-16.42-23.39-24.62l-23.18-24.5c-1.94-2-3.84-4.1-5.81-6.1l-5.92-6-11.84-12A1190.11,1190.11,0,0,0,740,174l-13.21-10.4-3.3-2.6c-1.1-.86-2.24-1.67-3.36-2.51l-6.74-5c-4.5-3.32-9-6.72-13.51-10l-13.75-9.64-6.88-4.81-7-4.62-14-9.24-14.28-8.82-7.14-4.4-7.27-4.19c-4.86-2.78-9.68-5.63-14.56-8.35l-14.78-7.93c-4.9-2.72-10-5.11-15-7.62s-10-5.06-15.08-7.33l-15.24-7L539.42,53c-5.12-2.26-10.38-4.13-15.59-6.17l-7.82-3c-2.62-1-5.27-1.85-7.91-2.78l-7.91-2.75-4-1.38c-1.33-.44-2.67-.84-4-1.26l-16-5-16.17-4.44c-2.68-.78-5.42-1.35-8.13-2l-8.15-1.95a563.72,563.72,0,0,0-66.08-11.06,513.5,513.5,0,0,0-133.82,3.25A528,528,0,0,0,55.13,83C45.48,88.79,36,94.87,26.77,101.33A333.38,333.38,0,0,0,0,121.94a312.94,312.94,0,0,1,26.13-21.49C35.18,93.69,44.5,87.31,54,81.21A526.22,526.22,0,0,1,113.45,48.6,517.17,517.17,0,0,1,176.72,24a511.89,511.89,0,0,1,66-16.26A519.67,519.67,0,0,1,378.57,2.09,545.75,545.75,0,0,1,446,12.43l8.32,1.88c2.77.65,5.57,1.19,8.31,2l16.5,4.32,16.35,4.85c1.37.41,2.73.8,4.09,1.23l4,1.35,8.09,2.7c2.69.92,5.41,1.78,8.08,2.73l8,3c5.31,2,10.7,3.86,15.93,6.09L559.46,49,575,55.91c5.22,2.24,10.28,4.84,15.4,7.31s10.25,4.91,15.24,7.63l15.08,8c5,2.73,9.89,5.58,14.84,8.36L643,91.37l7.29,4.41,14.56,8.84,14.29,9.27,7.14,4.63,7,4.83,14,9.67c4.63,3.27,9.17,6.68,13.76,10l6.87,5c1.14.84,2.29,1.66,3.42,2.52l3.36,2.61,13.45,10.43c35.73,28,69.42,58.46,101.63,90.33l12,12,6,6c2,2,3.9,4.1,5.86,6.15L897,302.79c7.75,8.13,15.43,16.31,23.22,24.39L944,351.05q48,47.22,100,90.09t107.94,80.32l7,4.72c2.33,1.55,4.71,3,7.07,4.56l14.16,9.08c2.37,1.5,4.7,3.06,7.1,4.51l7.19,4.36,14.38,8.73,3.6,2.18,3.65,2.09,7.3,4.18,14.59,8.37,14.8,8,7.39,4,3.7,2,3.75,1.91,15,7.64c2.5,1.27,5,2.57,7.5,3.81l7.59,3.63,15.17,7.28c2.51,1.24,5.1,2.31,7.65,3.48l7.67,3.45,15.35,6.9c2.54,1.19,5.16,2.2,7.74,3.29l7.77,3.22,15.55,6.44c2.58,1.11,5.23,2,7.84,3.05l7.87,3,15.73,6c5.28,1.89,10.59,3.7,15.89,5.55s10.59,3.71,15.91,5.49l16,5.07,8,2.53,4,1.27,4,1.16L1486.1,677l8.1,2.32,8.15,2.11,16.3,4.21,4.08,1.05,4.1.95,8.2,1.88c5.48,1.24,10.94,2.54,16.43,3.74L1568,696.6l8.25,1.67c2.76.53,5.53,1,8.3,1.47l16.59,2.91c5.54.93,11.1,1.69,16.66,2.54,11.09,1.79,22.26,3,33.41,4.44,5.58.66,11.17,1.17,16.76,1.76l8.39.86,8.4.67c5.6.42,11.2.93,16.81,1.28l16.84.94q33.69,1.54,67.46.9t67.39-4.07c11.21-1.07,22.38-2.49,33.53-4.13q8.35-1.23,16.67-2.74C1909,704.12,1914.51,703,1920,701.74Z"/></g><circle class="cls-3" cx="951.99" cy="372.5" r="27.66"/></g></g></svg>