<svg xmlns="http://www.w3.org/2000/svg" xmlns:xlink="http://www.w3.org/1999/xlink" viewBox="0 0 350.9 794.05"><defs><style>.cls-1{opacity:0.39;}.cls-2{fill:url(#linear-gradient);}.cls-3{fill:url(#linear-gradient-2);}</style><linearGradient id="linear-gradient" y1="370.77" x2="350.94" y2="370.77" gradientUnits="userSpaceOnUse"><stop offset="0" stop-color="#614a9d" stop-opacity="0"/><stop offset="0.04" stop-color="#78499c" stop-opacity="0.16"/><stop offset="0.08" stop-color="#90479b" stop-opacity="0.34"/><stop offset="0.13" stop-color="#a7469a" stop-opacity="0.5"/><stop offset="0.18" stop-color="#ba4599" stop-opacity="0.63"/><stop offset="0.24" stop-color="#ca4498" stop-opacity="0.75"/><stop offset="0.31" stop-color="#d74397" stop-opacity="0.84"/><stop offset="0.39" stop-color="#e14397" stop-opacity="0.91"/><stop offset="0.49" stop-color="#e84296" stop-opacity="0.96"/><stop offset="0.62" stop-color="#ec4296" stop-opacity="0.99"/><stop offset="1" stop-color="#ed4296"/></linearGradient><linearGradient id="linear-gradient-2" x1="0" y1="736.8" x2="350.94" y2="736.8" xlink:href="#linear-gradient"/></defs><g id="Layer_2" data-name="Layer 2"><g id="Layer_1-2" data-name="Layer 1"><g class="cls-1"><path class="cls-2" d="M117.55,3Q156,2,194.35,1.33T271.16,0c3.14-.07,6.59-.06,9.89.2A73.88,73.88,0,0,1,291,1.75c1.64.32,3.25.82,4.87,1.24s3.2,1,4.76,1.61a70.08,70.08,0,0,1,9.17,4.17,73.76,73.76,0,0,1,28.62,27.87,69.8,69.8,0,0,1,4.48,9.1,70.93,70.93,0,0,1,3.19,9.66,77,77,0,0,1,1.85,10c.12,1.69.35,3.38.37,5.08l.09,2.55,0,2.4q.3,19.2.5,38.4l.82,76.81.54,76.8q.57,76.82.63,153.62v76.8l-.16,76.81c-.05,25.6-.23,51.2-.4,76.81l-.06,9.6,0,4.8c0,.77,0,1.66-.06,2.53s-.05,1.74-.11,2.61a76.08,76.08,0,0,1-4.17,20.41c-.54,1.65-1.24,3.25-1.89,4.86s-1.41,3.18-2.24,4.71a70.37,70.37,0,0,1-5.41,8.88,78.13,78.13,0,0,1-6.59,8,81.55,81.55,0,0,1-7.61,7,75.31,75.31,0,0,1-37.5,16c-1.7.19-3.4.39-5.11.46s-3.42.13-5.12.14l-9.64-.12-19.2-.25-76.8-1L92,738.84c-25.6-.51-51.2-1-76.81-1.65v-.78c25.61-.63,51.21-1.13,76.81-1.64l76.81-1.3,76.8-1,19.2-.25,9.57-.14a71.46,71.46,0,0,0,8.9-.83,64.88,64.88,0,0,0,31.81-14.8,72.06,72.06,0,0,0,6.28-6.2,65.73,65.73,0,0,0,5.36-7,68.4,68.4,0,0,0,4.39-7.6c.68-1.3,1.21-2.67,1.81-4s1.08-2.71,1.5-4.11a63.92,63.92,0,0,0,3.15-17.17c0-.72,0-1.45.05-2.18s0-1.44,0-2.27l0-4.8-.06-9.6c-.17-25.61-.35-51.21-.4-76.81L337,497.87l0-76.8q.06-76.81.62-153.62l.55-76.8.82-76.81c.11-12.8.3-25.6.5-38.4l0-2.4,0-2.26c0-1.5-.16-3-.23-4.5a68.52,68.52,0,0,0-1.41-8.89,63.55,63.55,0,0,0-2.62-8.63,62.1,62.1,0,0,0-3.79-8.2,66.32,66.32,0,0,0-25.11-25.65,65.39,65.39,0,0,0-8.19-4c-1.39-.62-2.85-1.07-4.28-1.6S291,8.35,289.46,8a66.63,66.63,0,0,0-9-1.66c-3.08-.33-6-.44-9.3-.47q-38.4-.58-76.81-1.29T117.55,3Z"/><polygon class="cls-3" points="61.57 679.55 71.12 689.8 20.56 736.79 71.12 783.79 61.57 794.05 0 736.79 61.57 679.55"/></g></g></g></svg>